<svg id="图层_1" data-name="图层 1" xmlns="http://www.w3.org/2000/svg" viewBox="0 0 400 250">
    <path d="M380,13.79,400,44,290.4,237.43,271.57,209,356.46,64.86Q368.92,44.46,376,35.7q-9.42.3-18.91.5t-19.29-.1L151.83,28.23,133.13,0Z" style="fill:white"/>
    <path d="M20,236.2,0,206,109.6,12.57,128.43,41,43.55,185.15q-12.48,20.39-19.5,29.15,9.42-.3,18.91-.5t19.29.1l185.92,7.87L266.87,250Z" style="fill:white"/>
    <path d="M108.57,147.09V93.51h8v53.58Zm15.82-21.88L117.65,103h-2.42V93.51h5.91l6.75,23h.33l.83,8.68Zm2.42,0,1.24-8.68h.5l6.75-23h5.91V103H138.8l-6.75,22.19Zm13.07,21.88V93.51h8v53.58Z" style="fill:white"/>
    <path d="M155.07,147.09l17.07-53.58h12.07l17.07,53.58h-8.74l-14-47.09h-.75l-14,47.09ZM163,134v-7.17h30V134Z" style="fill:white"/>
    <path d="M228,147.85q-19,0-19-18V93.51h8.33v36.37c0,3.58.86,6.27,2.6,8.08s4.48,2.72,8.22,2.72q10.83,0,10.82-10.8V93.51h8.33v36.37q0,9-4.91,13.48T228,147.85Z" style="fill:white"/>
    <path d="M260.1,100.68V93.51h36v7.17Zm0,46.41v-7.17h36v7.17Zm13.78,0V93.51h8.33v53.58Z" style="fill:white"/>
</svg>